<svg width="1052" height="255" viewBox="0 0 1052 255" fill="none" xmlns="http://www.w3.org/2000/svg">
<g clip-path="url(#clip0_1298_88637)">
<path d="M65.3801 67.7211V98.4311C65.3801 111.918 54.4471 122.851 40.96 122.851C27.4729 122.851 16.5381 111.918 16.5381 98.4311V36.764L65.3801 67.7211Z" fill="url(#paint0_linear_1298_88637)"/>
<path d="M65.3801 67.7211V98.4311C65.3801 111.918 54.4471 122.851 40.96 122.851C27.4729 122.851 16.5381 111.918 16.5381 98.4311V36.764L65.3801 67.7211Z" fill="url(#paint1_radial_1298_88637)"/>
<path d="M165.862 131.41C139.039 149.186 62.1677 200.082 61.6481 200.402C61.5142 200.402 56.8694 203.495 49.7463 203.495C36.2592 203.495 25.3262 192.563 25.3262 179.075C25.3262 170.985 29.2611 163.816 35.3186 159.372C35.3538 159.351 38.1738 157.487 120.921 102.924L165.862 131.41Z" fill="url(#paint2_linear_1298_88637)"/>
<path d="M187.428 102.052C187.428 111.772 182.484 120.336 174.971 125.367C174.971 125.372 171.535 127.651 165.861 131.41L120.921 102.924L65.3801 67.7211L16.5381 36.7641V28.2001C16.5381 12.6258 29.1639 0 44.74 0C47.2817 0 49.7442 0.336429 52.0868 0.967013C54.4295 1.5976 56.6524 2.52234 58.7115 3.69895H58.7132C58.7132 3.69895 61.4645 5.4445 174.422 77.0404C181.419 81.4756 187.428 89.6681 187.428 102.052Z" fill="url(#paint3_linear_1298_88637)"/>
<path d="M165.862 131.41C139.039 149.186 62.1677 200.082 61.6481 200.402C61.5142 200.402 56.8694 203.495 49.7463 203.495C36.2592 203.495 25.3262 192.563 25.3262 179.075C25.3262 170.985 29.2611 163.816 35.3186 159.372C35.3538 159.351 38.1738 157.487 120.921 102.924L165.862 131.41Z" fill="url(#paint4_radial_1298_88637)"/>
<path d="M165.862 131.41C139.039 149.186 62.1677 200.082 61.6481 200.402C61.5142 200.402 56.8694 203.495 49.7463 203.495C36.2592 203.495 25.3262 192.563 25.3262 179.075C25.3262 170.985 29.2611 163.816 35.3186 159.372C35.3538 159.351 38.1738 157.487 120.921 102.924L165.862 131.41Z" fill="url(#paint5_radial_1298_88637)"/>
<path d="M174.422 77.0405C171.948 75.4725 169.527 73.9388 167.158 72.436L120.921 102.924C120.678 103.085 120.44 103.241 120.199 103.402L92.362 121.757C37.4851 157.942 35.3485 159.354 35.3186 159.372C29.2611 163.816 25.3262 170.985 25.3262 179.075C25.3262 192.562 36.2592 203.495 49.7463 203.495C56.8694 203.495 61.5143 200.402 61.6481 200.402C62.1677 200.082 139.039 149.186 165.862 131.41C171.535 127.651 174.972 125.372 174.972 125.367C182.484 120.336 187.429 111.772 187.429 102.052C187.429 89.6682 179.442 80.2217 174.422 77.0405Z" fill="url(#paint6_radial_1298_88637)"/>
<path d="M165.862 131.41C139.039 149.186 62.1677 200.082 61.6481 200.402C61.5142 200.402 56.8694 203.495 49.7463 203.495C36.2592 203.495 25.3262 192.563 25.3262 179.075C25.3262 170.985 29.2611 163.816 35.3186 159.372C35.3538 159.351 38.1738 157.487 120.921 102.924L165.862 131.41Z" fill="url(#paint7_radial_1298_88637)"/>
<path d="M174.422 77.0405C171.948 75.4725 169.527 73.9388 167.158 72.436L120.921 102.924C120.678 103.085 120.44 103.241 120.199 103.402L92.362 121.757C37.4851 157.942 35.3485 159.354 35.3186 159.372C29.2611 163.816 25.3262 170.985 25.3262 179.075C25.3262 192.562 36.2592 203.495 49.7463 203.495C56.8694 203.495 61.5143 200.402 61.6481 200.402C62.1677 200.082 139.039 149.186 165.862 131.41C171.535 127.651 174.972 125.372 174.972 125.367C182.484 120.336 187.429 111.772 187.429 102.052C187.429 89.6682 179.442 80.2217 174.422 77.0405Z" fill="url(#paint8_radial_1298_88637)"/>
<path d="M174.422 77.0405C171.948 75.4725 169.527 73.9388 167.158 72.436L120.921 102.924C120.678 103.085 120.44 103.241 120.199 103.402L92.362 121.757C37.4851 157.942 35.3485 159.354 35.3186 159.372C29.2611 163.816 25.3262 170.985 25.3262 179.075C25.3262 192.562 36.2592 203.495 49.7463 203.495C56.8694 203.495 61.5143 200.402 61.6481 200.402C62.1677 200.082 139.039 149.186 165.862 131.41C171.535 127.651 174.972 125.372 174.972 125.367C182.484 120.336 187.429 111.772 187.429 102.052C187.429 89.6682 179.442 80.2217 174.422 77.0405Z" fill="url(#paint9_radial_1298_88637)"/>
<path d="M58.7132 3.69896H58.7114C56.6523 2.52234 54.4294 1.5976 52.0868 0.967014C49.7441 0.336429 47.2817 0 44.7399 0C29.1639 0 16.5381 12.6258 16.5381 28.2001V98.4312C16.5381 111.918 27.4729 122.851 40.96 122.851C54.4471 122.851 65.3801 111.918 65.3801 98.4312V7.92279C59.0971 3.94027 58.7167 3.69896 58.7132 3.69896Z" fill="url(#paint10_radial_1298_88637)"/>
<path d="M187.428 102.052C187.428 111.772 182.484 120.336 174.971 125.367C174.971 125.372 171.535 127.651 165.861 131.41L120.921 102.924L65.3801 67.7211L16.5381 36.7641V28.2001C16.5381 12.6258 29.1639 0 44.74 0C47.2817 0 49.7442 0.336429 52.0868 0.967013C54.4295 1.5976 56.6524 2.52234 58.7115 3.69895H58.7132C58.7132 3.69895 61.4645 5.4445 174.422 77.0404C181.419 81.4756 187.428 89.6681 187.428 102.052Z" fill="url(#paint11_linear_1298_88637)"/>
<path d="M187.428 102.052C187.428 111.772 182.484 120.336 174.971 125.367C174.971 125.372 171.535 127.651 165.861 131.41L120.921 102.924L65.3801 67.7211L16.5381 36.7641V28.2001C16.5381 12.6258 29.1639 0 44.74 0C47.2817 0 49.7442 0.336429 52.0868 0.967013C54.4295 1.5976 56.6524 2.52234 58.7115 3.69895H58.7132C58.7132 3.69895 61.4645 5.4445 174.422 77.0404C181.419 81.4756 187.428 89.6681 187.428 102.052Z" fill="url(#paint12_linear_1298_88637)"/>
</g>
<path d="M358.092 50.6367C355.685 50.5432 353.315 51.2497 351.352 52.6457C349.389 54.0417 347.943 56.0486 347.242 58.3529L311.654 141.395L275.632 58.1125C274.791 55.6928 273.126 53.6457 270.928 52.329C268.857 51.0693 266.48 50.4009 264.056 50.3963C262.413 50.3197 260.774 50.6041 259.253 51.2296C257.733 51.8551 256.368 52.8064 255.255 54.0165C253.302 55.9328 252.141 58.514 252.003 61.247C251.976 62.51 252.138 63.7698 252.483 64.985C252.734 65.8543 253.058 66.7009 253.45 67.5162L299.021 170.712C300.149 173.273 302.043 175.422 304.442 176.863C306.565 178.181 309.074 178.733 311.554 178.428C313.854 178.316 316.067 177.523 317.914 176.148C319.761 174.774 321.157 172.882 321.924 170.712L367.736 67.5162C368.219 66.5464 368.622 65.5391 368.943 64.5042C369.252 63.528 369.414 62.5113 369.424 61.4874C369.476 60.0242 369.212 58.5669 368.65 57.215C368.088 55.863 367.241 54.6482 366.166 53.6535C363.972 51.6322 361.074 50.5495 358.092 50.6367Z" fill="black" fill-opacity="0.95"/>
<path d="M404.62 8.92238C401.078 8.67559 397.545 9.51773 394.495 11.3358C393.285 12.3582 392.344 13.6623 391.755 15.1335C391.167 16.6047 390.949 18.198 391.12 19.7732V23.6288C390.959 25.2 391.157 26.7873 391.7 28.2704C392.243 29.7535 393.117 31.0935 394.255 32.1888C397.256 34.1316 400.817 35.022 404.38 34.72C408.04 35.0153 411.702 34.1742 414.867 32.3114C416.061 31.2273 416.98 29.8742 417.546 28.3641C418.113 26.8541 418.311 25.2308 418.124 23.6288V19.7732C418.271 18.2393 418.064 16.6922 417.521 15.2503C416.978 13.8083 416.112 12.5097 414.99 11.4536C411.905 9.49391 408.261 8.60438 404.62 8.92238Z" fill="black" fill-opacity="0.95"/>
<path d="M404.62 50.6361C403.03 50.6049 401.45 50.899 399.978 51.5005C398.506 52.1019 397.173 52.998 396.06 54.1336C394.909 55.2851 394.005 56.6597 393.404 58.1731C392.804 59.6865 392.519 61.3067 392.567 62.9342V166.13C392.517 167.757 392.802 169.378 393.402 170.892C394.003 172.405 394.907 173.78 396.06 174.93C398.369 177.173 401.462 178.428 404.681 178.428C407.9 178.428 410.993 177.173 413.302 174.93C414.422 173.762 415.297 172.381 415.877 170.87C416.456 169.359 416.728 167.747 416.677 166.13V62.9342C416.727 61.3167 416.454 59.7054 415.875 58.1945C415.295 56.6835 414.421 55.303 413.302 54.1336C412.179 52.9776 410.826 52.0694 409.331 51.467C407.835 50.8647 406.231 50.5817 404.62 50.6361Z" fill="black" fill-opacity="0.95"/>
<path d="M552.185 0.00691174C550.574 -0.0488328 548.969 0.233116 547.474 0.834624C545.979 1.43613 544.626 2.34389 543.502 3.49954C542.383 4.6683 541.508 6.04865 540.928 7.55978C540.349 9.07091 540.076 10.6825 540.127 12.3001V67.1221C538.146 64.8182 535.968 62.6913 533.618 60.7654C529.007 57.0781 523.839 54.1473 518.308 52.0828C510.414 49.169 501.954 48.1209 493.587 49.0204C485.221 49.9199 477.177 52.7426 470.083 57.2678C461.206 63.1059 454.015 71.1707 449.23 80.6568C443.925 91.2336 441.276 102.944 441.514 114.774C441.276 126.604 443.924 138.315 449.23 148.891C454.055 158.426 461.336 166.5 470.323 172.28C479.204 177.974 489.555 180.95 500.104 180.84C506.125 180.884 512.099 179.779 517.705 177.583C522.862 175.591 527.666 172.782 531.93 169.263C535.012 166.684 537.765 163.737 540.127 160.486V166.129C540.075 167.747 540.347 169.358 540.926 170.87C541.506 172.381 542.382 173.761 543.502 174.929C545.811 177.172 548.902 178.427 552.121 178.427C555.34 178.427 558.431 177.172 560.74 174.929C561.893 173.779 562.798 172.405 563.4 170.891C564.001 169.377 564.286 167.757 564.237 166.129V12.3C564.311 10.6864 564.052 9.07492 563.476 7.56597C562.899 6.05703 562.018 4.68303 560.887 3.52962C559.756 2.37622 558.4 1.46817 556.903 0.862089C555.406 0.256008 553.8 -0.0351037 552.185 0.00691174ZM536.271 137.197C533.283 143.517 528.664 148.927 522.89 152.869C516.966 156.649 510.085 158.658 503.057 158.658C496.03 158.658 489.149 156.649 483.225 152.869C477.392 148.96 472.727 143.544 469.725 137.197C466.547 130.149 464.903 122.505 464.903 114.774C464.903 107.042 466.547 99.3993 469.725 92.3513C472.727 86.004 477.392 80.5881 483.225 76.6785C489.149 72.8984 496.03 70.8901 503.057 70.8901C510.085 70.8901 516.966 72.8984 522.89 76.6785C528.664 80.6208 533.283 86.0307 536.271 92.3513C539.45 99.3993 541.094 107.042 541.094 114.774C541.094 122.505 539.45 130.149 536.271 137.197Z" fill="black" fill-opacity="0.95"/>
<path d="M687.682 148.046C685.142 147.869 682.634 148.691 680.692 150.336C676.758 154.016 671.872 156.52 666.588 157.567C662.663 158.37 658.66 158.735 654.653 158.656C647.207 158.819 639.876 156.808 633.555 152.868C627.511 148.993 622.602 143.585 619.33 137.195C615.918 130.212 614.145 122.544 614.145 114.772C614.145 107.001 615.918 99.332 619.33 92.3495C622.643 85.9113 627.643 80.4941 633.796 76.677C640.45 72.6906 648.102 70.6828 655.856 70.8887C658.974 70.9285 662.082 71.2519 665.142 71.855C667.858 72.264 670.498 73.0758 672.975 74.2635C674.682 75.239 676.297 76.3687 677.798 77.6385C679.083 78.7687 680.499 79.7404 682.016 80.5327C683.858 81.4077 685.885 81.8218 687.922 81.7394C689.306 81.7993 690.683 81.5104 691.926 80.8992C693.169 80.2881 694.238 79.3743 695.035 78.2419C696.682 76.0526 697.572 73.3875 697.571 70.6483C697.533 68.4262 696.992 66.2416 695.989 64.258C694.987 62.2745 693.549 60.5433 691.783 59.1941C687.137 55.5105 681.749 52.8779 675.987 51.4779C668.471 49.5265 660.726 48.5943 652.961 48.7063C641.435 48.4784 630.076 51.4864 620.174 57.3889C610.786 63.0696 603.119 71.1947 597.991 80.8957C592.55 91.3456 589.814 102.993 590.035 114.772C589.842 126.468 592.446 138.04 597.628 148.527C602.458 158.237 609.887 166.417 619.09 172.156C628.928 178.108 640.264 181.121 651.759 180.839C659.664 180.92 667.539 179.864 675.144 177.704C681.259 176.078 687.022 173.339 692.146 169.625C693.932 168.529 695.439 167.033 696.547 165.254C697.656 163.476 698.335 161.464 698.532 159.378C698.625 156.437 697.64 153.563 695.761 151.299C694.745 150.184 693.492 149.313 692.093 148.75C690.694 148.186 689.186 147.946 687.682 148.046Z" fill="black" fill-opacity="0.95"/>
<path d="M824.876 49.6767C823.254 49.6236 821.64 49.9189 820.142 50.5425C818.645 51.1662 817.298 52.1038 816.193 53.292C813.971 55.6301 812.758 58.7493 812.818 61.9746V66.8628C810.909 64.6541 808.811 62.6149 806.55 60.7681C801.939 57.0798 796.771 54.1489 791.24 52.0855C783.309 49.1844 774.82 48.1329 766.421 49.0111C758.022 49.8892 749.934 52.6739 742.774 57.1527C733.883 62.9212 726.686 70.9513 721.922 80.4191C716.599 91.0754 713.95 102.868 714.205 114.777C713.994 126.565 716.642 138.229 721.922 148.771C726.698 158.334 733.939 166.45 742.897 172.283C751.807 178.009 762.205 180.986 772.795 180.842C778.816 180.887 784.79 179.781 790.396 177.585C795.533 175.604 800.332 172.839 804.621 169.388C807.697 166.879 810.45 163.999 812.818 160.814V166.131C812.766 167.749 813.038 169.361 813.617 170.872C814.197 172.384 815.073 173.764 816.193 174.932C818.502 177.175 821.593 178.429 824.812 178.429C828.031 178.429 831.123 177.175 833.431 174.932C834.584 173.781 835.489 172.407 836.091 170.894C836.692 169.38 836.977 167.759 836.928 166.131V61.9749C836.977 60.347 836.692 58.7264 836.09 57.2129C835.489 55.6993 834.584 54.325 833.431 53.1744C832.32 52.0379 830.987 51.1412 829.516 50.5396C828.044 49.9381 826.465 49.6444 824.876 49.6767ZM808.963 137.076C806 143.447 801.378 148.903 795.581 152.872C789.634 156.652 782.733 158.66 775.687 158.66C768.64 158.66 761.739 156.652 755.793 152.872C749.995 148.905 745.374 143.449 742.416 137.076C739.238 130.05 737.594 122.427 737.594 114.715C737.594 107.003 739.238 99.3802 742.416 92.3538C745.418 86.0065 750.083 80.5906 755.916 76.681C761.84 72.9009 768.721 70.8926 775.748 70.8926C782.776 70.8926 789.657 72.9009 795.581 76.681C801.355 80.6232 805.974 86.0332 808.963 92.3538C812.141 99.3802 813.785 107.003 813.785 114.715C813.785 122.427 812.141 130.05 808.963 137.076Z" fill="black" fill-opacity="0.95"/>
<path d="M946.276 116.096C942.192 113.21 937.73 110.897 933.017 109.224C928.112 107.458 923.169 105.93 918.188 104.642C913.37 103.46 908.62 102.013 903.962 100.306C900.113 98.9853 896.553 96.9387 893.475 94.2768C892.151 93.0549 891.109 91.5591 890.422 89.8936C889.735 88.228 889.419 86.4328 889.496 84.6328C889.368 82.8431 889.6 81.0459 890.18 79.3479C890.76 77.6499 891.675 76.0857 892.871 74.7483C895.175 72.4665 898.048 70.8423 901.191 70.0441C904.293 69.1871 907.494 68.7418 910.712 68.7196C916.346 68.624 921.935 69.7329 927.106 71.9719C931.721 73.9839 935.776 77.0884 938.923 81.0175C940.791 82.6683 943.181 83.6064 945.673 83.6664C948.198 83.8941 950.71 83.1147 952.663 81.4982C953.945 80.6743 954.988 79.5275 955.686 78.173C956.384 76.8186 956.714 75.3041 956.642 73.782C956.468 71.0728 955.504 68.4739 953.87 66.3061C950.375 62.1625 946.119 58.7258 941.332 56.1814C936.617 53.6517 931.592 51.7471 926.385 50.5156C921.569 49.3488 916.634 48.7414 911.679 48.7055C904.003 48.6316 896.399 50.1935 889.374 53.2872C882.855 56.1012 877.138 60.4927 872.739 66.0661C868.438 71.6528 866.182 78.5455 866.348 85.5945C866.152 91.3979 867.526 97.1465 870.326 102.234C872.868 106.618 876.372 110.368 880.573 113.202C884.946 116.113 889.689 118.424 894.676 120.075C899.9 121.845 905.085 123.453 910.231 124.897C915.054 126.187 919.553 127.593 923.731 129.115C927.471 130.385 930.916 132.395 933.861 135.027C935.151 136.268 936.163 137.77 936.828 139.433C937.492 141.096 937.795 142.881 937.716 144.671C937.849 146.535 937.596 148.407 936.975 150.17C936.353 151.933 935.374 153.549 934.101 154.918C931.677 157.255 928.684 158.917 925.418 159.74C922.187 160.602 918.874 161.126 915.534 161.305C908.571 161.508 901.663 160.019 895.402 156.964C889.711 153.962 884.607 149.961 880.333 145.151C878.477 143.105 875.958 141.781 873.22 141.413C870.711 141.176 868.197 141.816 866.107 143.224C864.703 143.974 863.506 145.06 862.623 146.385C861.74 147.71 861.198 149.232 861.045 150.817C860.827 153.569 861.503 156.318 862.972 158.656C868.8 166.526 876.805 172.518 885.999 175.893C894.761 179.13 904.024 180.804 913.366 180.838C920.934 180.867 928.433 179.391 935.426 176.497C942.173 173.783 948.14 169.431 952.786 163.836C957.413 158.164 959.851 151.021 959.658 143.704C959.875 137.89 958.587 132.118 955.92 126.947C953.548 122.661 950.254 118.955 946.276 116.096Z" fill="black" fill-opacity="0.95"/>
<path d="M1041.63 155.521C1039.93 155.476 1038.25 155.804 1036.69 156.482C1035.21 157.149 1033.61 157.479 1031.99 157.449C1030.22 157.447 1028.46 157.12 1026.8 156.482C1025.08 155.809 1023.66 154.521 1022.83 152.867C1021.77 150.691 1021.27 148.287 1021.38 145.872V75.2288H1040.67C1042.15 75.2695 1043.64 75.0133 1045.02 74.4751C1046.41 73.9369 1047.68 73.1275 1048.75 72.0943C1049.8 71.1079 1050.63 69.9112 1051.19 68.5819C1051.75 67.2526 1052.03 65.8204 1052 64.3781C1052.03 62.8821 1051.75 61.3957 1051.19 60.0079C1050.64 58.6201 1049.8 57.3594 1048.74 56.3014C1047.69 55.2433 1046.43 54.4097 1045.04 53.8505C1043.65 53.2912 1042.16 53.0178 1040.67 53.0466H1021.38V33.9989C1021.43 32.3812 1021.16 30.7695 1020.58 29.2583C1020 27.7471 1019.12 26.3668 1018 25.1983C1015.7 22.9554 1012.6 21.7006 1009.39 21.7006C1006.17 21.7006 1003.07 22.9554 1000.77 25.1983C999.613 26.3485 998.708 27.7228 998.106 29.2364C997.505 30.7501 997.22 32.3709 997.269 33.9989V53.0466H984.009C982.522 53.0055 981.041 53.2615 979.654 53.7997C978.267 54.3379 977.001 55.1475 975.93 56.1811C973.844 58.2791 972.673 61.1176 972.673 64.0763C972.673 67.0351 973.844 69.8736 975.93 71.9716C976.983 73.0382 978.243 73.8776 979.632 74.4378C981.022 74.9981 982.512 75.2673 984.009 75.2288H997.269V146.838C996.956 153.009 998.112 159.165 1000.64 164.802C1002.52 168.668 1005.5 171.896 1009.2 174.083C1012.52 175.963 1016.16 177.192 1019.93 177.703C1023.13 178.147 1026.35 178.388 1029.58 178.424C1034.32 178.444 1038.98 177.196 1043.08 174.809C1044.9 173.982 1046.45 172.663 1047.56 171.001C1048.66 169.339 1049.29 167.401 1049.35 165.405C1049.49 162.774 1048.63 160.188 1046.94 158.169C1046.3 157.372 1045.49 156.722 1044.57 156.265C1043.66 155.808 1042.66 155.554 1041.63 155.521Z" fill="black" fill-opacity="0.95"/>
<path d="M447.211 227.592C447.694 223.567 450.799 220.931 456.251 220.931C461.978 220.931 465.359 223.845 465.359 228.633V231.131L454.663 232.935C444.795 234.6 441 238.347 441 244.731C441 250.906 445.761 255 453.214 255C459.287 255 463.358 252.016 465.635 248.478L466.257 253.959H470.466V228.98C470.466 221.624 465.152 216.837 456.458 216.837C448.039 216.837 442.449 221.139 441.828 227.592H447.211ZM465.359 240.914C465.359 246.535 459.839 250.629 454.456 250.629C449.488 250.629 446.383 248.408 446.383 244.245C446.383 240.498 448.522 238.139 456.044 236.82L465.359 235.224V240.914Z" fill="#80868B"/>
<path d="M544.294 217.878L538.153 245.147L532.563 217.878H519.59L513.241 245.008L507.652 217.878H496.541L506.202 253.959H519.245L525.662 227.592L531.321 253.959H544.639L554.507 217.878H544.294Z" fill="#80868B"/>
<path d="M582.499 243.482C581.878 245.841 579.669 247.437 576.288 247.437C571.665 247.437 568.49 244.869 567.731 238.555H593.885C593.885 223.845 586.846 216.837 575.391 216.837C564.143 216.837 556.828 223.637 556.828 235.918C556.828 247.922 564.557 255 575.736 255C586.501 255 591.884 250.143 593.471 243.482H582.499ZM567.731 232.241C568.352 226.065 571.113 223.637 575.184 223.637C579.738 223.637 582.568 226.204 582.844 232.241H567.731Z" fill="#80868B"/>
<path d="M608.139 253.959L609.864 250.212C612.348 253.127 616.144 255 620.353 255C630.152 255 637.329 247.853 637.329 234.669C637.329 222.735 630.911 216.837 621.319 216.837C616.765 216.837 613.039 218.641 610.485 221.278V204H599.72V253.959H608.139ZM626.495 235.641C626.495 243.482 622.976 247.09 618.145 247.09C613.591 247.09 610.14 244.245 610.14 235.502C610.14 228.216 613.66 224.747 618.49 224.747C623.39 224.747 626.495 227.869 626.495 235.641Z" fill="#80868B"/>
<path d="M667.814 243.482C667.193 245.841 664.985 247.437 661.603 247.437C656.98 247.437 653.805 244.869 653.046 238.555H679.2C679.2 223.845 672.161 216.837 660.706 216.837C649.458 216.837 642.143 223.637 642.143 235.918C642.143 247.922 649.872 255 661.051 255C671.816 255 677.199 250.143 678.786 243.482H667.814ZM653.046 232.241C653.667 226.065 656.428 223.637 660.499 223.637C665.054 223.637 667.883 226.204 668.159 232.241H653.046Z" fill="#80868B"/>
<path d="M718.642 217.878H707.394L701.114 227.314L694.834 217.878H682.275L694.972 234.947L681.585 253.959H693.04L700.493 242.788L707.532 253.959H720.505L706.773 234.808L718.642 217.878Z" fill="#80868B"/>
<path d="M749.738 253.959V217.878H744.563V253.959H749.738ZM750.083 210.453V204H744.218V210.453H750.083Z" fill="#80868B"/>
<path d="M764.837 253.959V231.616C764.837 225.163 769.668 221.208 774.774 221.208C780.226 221.208 783.4 224.261 783.4 230.02V253.959H788.507V229.882C788.507 221.624 783.676 216.837 775.947 216.837C771.393 216.837 767.045 219.057 764.561 223.29L763.94 217.878H759.73V253.959H764.837Z" fill="#80868B"/>
<path d="M803.452 253.959V231.616C803.452 225.163 808.282 221.208 813.389 221.208C818.84 221.208 822.014 224.261 822.014 230.02V253.959H827.121V229.882C827.121 221.624 822.291 216.837 814.562 216.837C810.007 216.837 805.66 219.057 803.176 223.29L802.555 217.878H798.345V253.959H803.452Z" fill="#80868B"/>
<path d="M834.889 235.918C834.889 248.408 842.273 255 852.003 255C861.802 255 869.048 248.547 869.048 235.918C869.048 223.151 861.664 216.837 852.003 216.837C842.48 216.837 834.889 223.082 834.889 235.918ZM840.203 235.918C840.203 226.065 845.24 221.069 852.003 221.069C858.766 221.069 863.734 225.927 863.734 235.918C863.734 245.702 858.903 250.767 852.072 250.767C845.309 250.767 840.203 245.702 840.203 235.918Z" fill="#80868B"/>
<path d="M899.305 217.878L888.264 249.727L877.292 217.878H871.703L884.676 253.959H891.577L904.688 217.878H899.305Z" fill="#80868B"/>
<path d="M913.476 227.592C913.959 223.567 917.064 220.931 922.516 220.931C928.244 220.931 931.625 223.845 931.625 228.633V231.131L920.929 232.935C911.061 234.6 907.266 238.347 907.266 244.731C907.266 250.906 912.027 255 919.48 255C925.552 255 929.624 252.016 931.901 248.478L932.522 253.959H936.731V228.98C936.731 221.624 931.418 216.837 922.723 216.837C914.304 216.837 908.715 221.139 908.094 227.592H913.476ZM931.625 240.914C931.625 246.535 926.104 250.629 920.722 250.629C915.753 250.629 912.648 248.408 912.648 244.245C912.648 240.498 914.787 238.139 922.309 236.82L931.625 235.224V240.914Z" fill="#80868B"/>
<path d="M961.164 222.318V217.878H953.09V209.204H948.329L947.984 217.878H942.739V222.318H947.984V245.841C947.984 251.531 951.089 255 956.817 255C958.404 255 959.853 254.792 961.578 254.306V249.935C959.646 250.42 958.611 250.49 957.369 250.49C954.678 250.49 953.09 249.033 953.09 245.98V222.318H961.164Z" fill="#80868B"/>
<path d="M973.001 253.959V217.878H967.825V253.959H973.001ZM973.346 210.453V204H967.48V210.453H973.346Z" fill="#80868B"/>
<path d="M980.922 235.918C980.922 248.408 988.306 255 998.036 255C1007.84 255 1015.08 248.547 1015.08 235.918C1015.08 223.151 1007.7 216.837 998.036 216.837C988.513 216.837 980.922 223.082 980.922 235.918ZM986.236 235.918C986.236 226.065 991.273 221.069 998.036 221.069C1004.8 221.069 1009.77 225.927 1009.77 235.918C1009.77 245.702 1004.94 250.767 998.105 250.767C991.342 250.767 986.236 245.702 986.236 235.918Z" fill="#80868B"/>
<path d="M1028.33 253.959V231.616C1028.33 225.163 1033.16 221.208 1038.27 221.208C1043.72 221.208 1046.89 224.261 1046.89 230.02V253.959H1052V229.882C1052 221.624 1047.17 216.837 1039.44 216.837C1034.89 216.837 1030.54 219.057 1028.05 223.29L1027.43 217.878H1023.22V253.959H1028.33Z" fill="#80868B"/>
<defs>
<linearGradient id="paint0_linear_1298_88637" x1="40.9591" y1="36.764" x2="40.9591" y2="122.851" gradientUnits="userSpaceOnUse">
<stop stop-color="#BF235A"/>
<stop offset="1" stop-color="#8F42AE"/>
</linearGradient>
<radialGradient id="paint1_radial_1298_88637" cx="0" cy="0" r="1" gradientUnits="userSpaceOnUse" gradientTransform="translate(48.0007 55.0731) rotate(73.7506) scale(49.7049 28.2004)">
<stop stop-color="#831B4F"/>
<stop offset="1" stop-color="#9F338D" stop-opacity="0"/>
</radialGradient>
<linearGradient id="paint2_linear_1298_88637" x1="148.533" y1="120.305" x2="49.1321" y2="184.824" gradientUnits="userSpaceOnUse">
<stop stop-color="#AA2B7D"/>
<stop offset="0.456024" stop-color="#7F42B4"/>
<stop offset="1" stop-color="#376DFA"/>
</linearGradient>
<linearGradient id="paint3_linear_1298_88637" x1="145.52" y1="69.5693" x2="123.22" y2="103.636" gradientUnits="userSpaceOnUse">
<stop stop-color="#F55769"/>
<stop offset="1" stop-color="#BE2661"/>
</linearGradient>
<radialGradient id="paint4_radial_1298_88637" cx="0" cy="0" r="1" gradientUnits="userSpaceOnUse" gradientTransform="translate(134.936 105.926) rotate(123.053) scale(56.4135 30.7531)">
<stop stop-color="#8F216B"/>
<stop offset="1" stop-color="#683080" stop-opacity="0"/>
</radialGradient>
<radialGradient id="paint5_radial_1298_88637" cx="0" cy="0" r="1" gradientUnits="userSpaceOnUse" gradientTransform="translate(81.8373 111.568) rotate(85.7412) scale(27.2625 44.5818)">
<stop stop-color="#AE3EB1"/>
<stop offset="1" stop-color="#B140BA" stop-opacity="0"/>
</radialGradient>
<radialGradient id="paint6_radial_1298_88637" cx="0" cy="0" r="1" gradientUnits="userSpaceOnUse" gradientTransform="translate(159.113 130.754) rotate(170.528) scale(43.8202 29.5759)">
<stop stop-color="#C62E6F"/>
<stop offset="1" stop-color="#C52F71" stop-opacity="0"/>
</radialGradient>
<radialGradient id="paint7_radial_1298_88637" cx="0" cy="0" r="1" gradientUnits="userSpaceOnUse" gradientTransform="translate(140.323 92.3264) rotate(108.104) scale(48.4307 14.644)">
<stop stop-color="#6A1A4C"/>
<stop offset="1" stop-color="#8F379D" stop-opacity="0"/>
</radialGradient>
<radialGradient id="paint8_radial_1298_88637" cx="0" cy="0" r="1" gradientUnits="userSpaceOnUse" gradientTransform="translate(176.592 126.633) rotate(-165.896) scale(37.4176 46.2804)">
<stop stop-color="#BF2D72"/>
<stop offset="1" stop-color="#C93273" stop-opacity="0"/>
</radialGradient>
<radialGradient id="paint9_radial_1298_88637" cx="0" cy="0" r="1" gradientUnits="userSpaceOnUse" gradientTransform="translate(147.43 156.149) rotate(-100.452) scale(39.2854 48.5907)">
<stop stop-color="#8C39A1"/>
<stop offset="1" stop-color="#972F8D" stop-opacity="0"/>
</radialGradient>
<radialGradient id="paint10_radial_1298_88637" cx="0" cy="0" r="1" gradientUnits="userSpaceOnUse" gradientTransform="translate(10.2265 4.13938e-06) rotate(77.4477) scale(93.078 55.5723)">
<stop stop-color="#CF2761"/>
<stop offset="1" stop-color="#CE2960" stop-opacity="0"/>
</radialGradient>
<linearGradient id="paint11_linear_1298_88637" x1="46.9099" y1="-5.23998" x2="51.1718" y2="36.0677" gradientUnits="userSpaceOnUse">
<stop stop-color="#FA4B89"/>
<stop offset="1" stop-color="#BE2661" stop-opacity="0"/>
</linearGradient>
<linearGradient id="paint12_linear_1298_88637" x1="190.013" y1="97.8661" x2="162.617" y2="108.115" gradientUnits="userSpaceOnUse">
<stop stop-color="#DF3F87"/>
<stop offset="1" stop-color="#D43772" stop-opacity="0"/>
</linearGradient>
<clipPath id="clip0_1298_88637">
<rect width="170.89" height="204" fill="white" transform="translate(16.5381)"/>
</clipPath>
</defs>
</svg>
